<svg id="_x33_0" enable-background="new 0 0 62 62" height="512" viewBox="0 0 62 62" width="512" xmlns="http://www.w3.org/2000/svg" xmlns:xlink="http://www.w3.org/1999/xlink"><linearGradient id="SVGID_1_" gradientUnits="userSpaceOnUse" x1="31" x2="31" y1="62" y2="0"><stop offset="0" stop-color="#9f2fff"/><stop offset="1" stop-color="#0bb1d3"/></linearGradient><path d="m13 20c1.654 0 3-1.346 3-3s-1.346-3-3-3-3 1.346-3 3 1.346 3 3 3zm0-4c.551 0 1 .449 1 1s-.449 1-1 1-1-.449-1-1 .449-1 1-1zm0 8c3.86 0 7-3.14 7-7s-3.14-7-7-7-7 3.14-7 7 3.14 7 7 7zm0-12c2.757 0 5 2.243 5 5s-2.243 5-5 5-5-2.243-5-5 2.243-5 5-5zm-13 25.279c0 1.5 1.221 2.721 2.721 2.721h3.279v2c0 1.103.897 2 2 2v2h2v-2h2v10h2v-10h2v8h2v-2.465l1.367-.911c1.276-.851 3.062-.802 4.291.12l1.065.798c1.254.94 2.806 1.458 4.373 1.458 1.443 0 2.841-.423 4.053-1.231.755-.503 1.633-.769 2.54-.769 1.223 0 2.373.476 3.238 1.341l.366.366 1.414-1.414-.366-.366c-1.242-1.243-2.895-1.927-4.652-1.927-1.303 0-2.565.382-3.66 1.112-1.195.796-2.699 1.028-4.088.728.766-1.365 1.505-2.745 2.213-4.141.531.788 1.425 1.301 2.419 1.301 1.298 0 2.422-.836 2.795-2.08l2.345-7.816c.041-.14.287-.104.287.043v2.853c0 1.654 1.346 3 3 3s3-1.346 3-3v-2.853c0-.146.245-.184.287-.042l2.345 7.815c.374 1.244 1.497 2.08 2.795 2.08.997 0 1.893-.515 2.422-1.307 1.276 2.515 2.648 4.983 4.114 7.399-1.008.18-1.946.621-2.734 1.291-1.437-2.11-3.813-3.383-6.42-3.383-2.079 0-4.033.81-5.516 2.293l1.428 1.4c1.092-1.091 2.544-1.693 4.088-1.693 2.204 0 4.185 1.225 5.171 3.195l.745 1.494 1.568-1.568c.723-.723 1.685-1.121 2.707-1.121 1.654 0 3 1.346 3 3s-1.346 3-3 3h-29v2h29c2.757 0 5-2.243 5-5 0-2.277-1.539-4.181-3.625-4.783-5.399-8.653-9.562-18.007-12.364-27.814l-.636-2.227c-.365-1.281-1.552-2.176-2.884-2.176h-.491v-8h14.766l-3.6-6 3.6-6h-16.766v20h-.491c-1.332 0-2.519.895-2.885 2.176l-.636 2.226c-2.354 8.238-5.687 16.185-9.896 23.647-.055-.038-.116-.066-.169-.107l-1.065-.798c-1.89-1.417-4.638-1.493-6.601-.184l-.257.172v-3.132c1.103 0 2-.897 2-2v-2h3.279c1.5 0 2.721-1.221 2.721-2.721 0-.293-.047-.583-.14-.861l-2.496-7.487c.419-2.04.636-4.118.636-6.218 0-7.138-2.489-14.112-7.01-19.637l-1.583-1.935c-.593-.725-1.47-1.141-2.407-1.141s-1.814.416-2.407 1.141l-1.583 1.935c-4.521 5.525-7.01 12.499-7.01 19.637 0 2.1.217 4.178.635 6.218l-2.495 7.487c-.093.279-.14.568-.14.861zm42-35.279h11.234l-2.4 4 2.4 4h-11.234zm-4.089 22.951.636-2.226c.122-.427.517-.725.962-.725h2.982c.444 0 .84.298.962.725l.636 2.227c1.682 5.888 3.858 11.61 6.476 17.126l-.237 1.184c-.086.427-.465.738-.901.738-.409 0-.762-.263-.879-.655l-2.345-7.815c-.274-.915-1.1-1.53-2.056-1.53-1.184 0-2.147.963-2.147 2.147v2.853c0 .551-.449 1-1 1s-1-.449-1-1v-2.853c0-1.184-.963-2.147-2.147-2.147-.956 0-1.782.615-2.056 1.53l-2.345 7.815c-.117.392-.471.655-.879.655-.436 0-.815-.311-.901-.738l-.236-1.182c2.619-5.52 4.795-11.25 6.475-17.129zm-32.164 7.676c-.076-.207-.128-.419-.198-.627h5.146l-.6 6h-2.394zm9.558-.627h5.146c-.07.208-.122.42-.198.627l-1.954 5.373h-2.394zm2.695 10h-10v-2h10zm-5.895-4 .79-7.905c.011-.107.198-.107.209 0l.791 7.905zm11.858-.949c.024.074.037.151.037.228 0 .398-.323.721-.721.721h-2.851l1.705-4.689c.104-.287.198-.577.294-.867zm-11.822-34.644c.424-.518 1.295-.518 1.719 0l1.583 1.935c.438.536.843 1.094 1.24 1.658h-7.366c.397-.563.802-1.122 1.24-1.658zm-4.11 5.593h9.937c2.611 4.439 4.032 9.525 4.032 14.713 0 2.471-.32 4.911-.938 7.287h-5.957l-.01-.104c-.109-1.081-1.009-1.896-2.095-1.896s-1.986.815-2.095 1.896l-.01.104h-5.957c-.618-2.376-.938-4.816-.938-7.287 0-5.188 1.421-10.274 4.031-14.713zm-5.994 29.051 1.536-4.607c.096.289.19.579.294.867l1.705 4.689h-2.851c-.398 0-.721-.323-.721-.721 0-.077.013-.154.037-.228zm23.963-29.051h2v2h-2zm4 0h2v2h-2zm6 2h-2v-2h2zm-8 2h2v2h-2zm4 0h2v2h-2zm-3.803 45-.504-.336c-1.304-.869-3.083-.869-4.387 0l-1.752 1.168-1.109-1.664 1.752-1.168c1.963-1.309 4.643-1.309 6.605 0l.504.336c1.304.869 3.083.869 4.387 0l.504-.336c1.963-1.309 4.643-1.309 6.605 0l1.752 1.168-1.109 1.664-1.752-1.168c-1.304-.869-3.083-.869-4.387 0l-.503.336c-.981.654-2.124 1-3.303 1s-2.321-.346-3.303-1zm-28.197-2c0-2.757 2.243-5 5-5 2.226 0 4.194 1.418 4.897 3.53l.051.153-1.897.633-.051-.153c-.431-1.294-1.637-2.163-3-2.163-1.654 0-3 1.346-3 3s1.346 3 3 3c1.22 0 2.425-.195 3.581-.581l2.051-.684.316.949c.463 1.385 1.754 2.316 3.214 2.316.925 0 1.776-.353 2.416-.992l.715-.715 1.414 1.414-.715.715c-1.017 1.017-2.37 1.578-3.809 1.578-2 0-3.789-1.079-4.727-2.764l-.242.081c-1.361.453-2.779.683-4.214.683-2.757 0-5-2.243-5-5z" fill="url(#SVGID_1_)"/></svg>