<svg id="Layer_5" enable-background="new 0 0 64 64" height="512" viewBox="0 0 64 64" width="512" xmlns="http://www.w3.org/2000/svg" xmlns:xlink="http://www.w3.org/1999/xlink"><linearGradient id="SVGID_1_" gradientUnits="userSpaceOnUse" x1="32" x2="32" y1="63" y2="1"><stop offset="0" stop-color="#9f2fff"/><stop offset="1" stop-color="#0bb1d3"/></linearGradient><path d="m20 31c-7.168 0-13 5.832-13 13s5.832 13 13 13 13-5.832 13-13-5.832-13-13-13zm0 24c-6.065 0-11-4.935-11-11s4.935-11 11-11 11 4.935 11 11-4.935 11-11 11zm40-54h-50c-1.654 0-3 1.346-3 3v26.13l-3.064 3.064 1.244 2.509c-.652 1.163-1.165 2.398-1.526 3.685l-2.654.893v7.438l2.653.894c.361 1.286.874 2.521 1.526 3.685l-1.244 2.509 5.259 5.259 2.509-1.245c1.165.654 2.4 1.166 3.685 1.527l.893 2.652h7.438l.894-2.653c1.284-.361 2.52-.873 3.685-1.527l2.509 1.245 5.063-5.065h24.13c1.654 0 3-1.346 3-3v-48c0-1.654-1.346-3-3-3zm-50 2h50c.552 0 1 .448 1 1v9h-52v-9c0-.552.448-1 1-1zm23.635 51.407-3.228 3.228-2.196-1.09-.47.284c-1.289.779-2.684 1.357-4.145 1.718l-.533.131-.782 2.322h-4.563l-.782-2.322-.533-.131c-1.461-.36-2.855-.938-4.145-1.718l-.47-.284-2.196 1.09-3.228-3.228 1.09-2.196-.284-.47c-.779-1.287-1.356-2.682-1.718-4.145l-.131-.533-2.321-.782v-4.563l2.322-.782.131-.533c.361-1.463.938-2.857 1.718-4.145l.284-.47-1.09-2.196 3.228-3.228 2.196 1.09.47-.284c1.287-.779 2.682-1.356 4.145-1.718l.533-.131.782-2.321h4.563l.782 2.322.533.131c1.463.361 2.857.938 4.145 1.718l.47.284 2.196-1.09 3.228 3.228-1.09 2.196.284.47c.779 1.287 1.356 2.682 1.718 4.145l.131.533 2.321.782v4.563l-2.322.782-.131.533c-.361 1.463-.938 2.857-1.718 4.145l-.284.47zm26.365-1.407h-24.831l-.349-.703c.652-1.163 1.165-2.398 1.526-3.685l2.654-.893v-7.438l-2.653-.894c-.361-1.286-.874-2.521-1.526-3.685l1.244-2.509-5.259-5.259-2.509 1.244c-1.163-.652-2.398-1.165-3.685-1.526l-.893-2.652h-7.438l-.894 2.653c-1.286.361-2.521.874-3.685 1.526l-2.509-1.244-.193.195v-13.13h52v37c0 .552-.448 1-1 1zm-30.586-9-4.707 4.707-1.414-1.414 3.293-3.293-3.293-3.293 1.414-1.414zm-12.707 3.293-1.414 1.414-4.707-4.707 4.707-4.707 1.414 1.414-3.293 3.293zm7.23-10.941-6 16-1.873-.703 6-16zm-6.937-31.352h-6v6h6zm-2 4h-2v-2h2zm10-4h-6v6h6zm-2 4h-2v-2h2zm10-4h-6v6h6zm-2 4h-2v-2h2zm10 18h18v-10h-18zm2-8h14v6h-14zm2 2h2v2h-2zm4 0h2v2h-2zm4 0h2v2h-2zm-12 18h18v-10h-18zm2-8h14v6h-14zm10 2h2v2h-2zm-4 0h2v2h-2zm-4 0h2v2h-2zm-4 18h18v-10h-18zm2-8h14v6h-14zm10 2h2v2h-2zm-8 0h2v2h-2zm4 0h2v2h-2zm-36-26h-2v-2h2zm2-2h18v2h-18zm-4 4h22v2h-22zm35-10h10c1.654 0 3-1.346 3-3s-1.346-3-3-3h-10c-1.654 0-3 1.346-3 3s1.346 3 3 3zm5.414-2-2-2h2.172l2 2zm5.586-1c0 .43-.275.789-.656.93l-1.93-1.93h1.586c.552 0 1 .448 1 1zm-11-1h.586l2 2h-2.586c-.552 0-1-.448-1-1s.448-1 1-1z" fill="url(#SVGID_1_)"/></svg>